name rise49.25peak52.1432fall72.8391.mot
datacolumns 19
datarows 64
range 6.249972 6.354977
endheader
time	ground_force1_vx	ground_force1_vy	ground_force1_vz	ground_force1_px	ground_force1_py	ground_force1_pz	ground_force2_vx	ground_force2_vy	ground_force2_vz	ground_force2_px	ground_force2_py	ground_force2_pz	ground_torque1_x	ground_torque1_y	ground_torque1_z	ground_torque2_x	ground_torque2_y	ground_torque2_z	
6.249972	0.000000	0.000000	0.000000	0.000000	0.000000	0.000000	-50.466544	804.091393	-52.678604	0.130447	0.000000	-0.084543	0.000000	0.000000	0.000000	0.000000	-20.631975	0.000000	
6.251644	0.000000	0.000000	0.000000	0.000000	0.000000	0.000000	-50.845062	802.944374	-52.454135	0.129757	0.000000	-0.084462	0.000000	0.000000	0.000000	0.000000	-20.551641	0.000000	
6.253309	0.000000	0.000000	0.000000	0.000000	0.000000	0.000000	-51.234790	801.722221	-52.214601	0.129068	0.000000	-0.084378	0.000000	0.000000	0.000000	0.000000	-20.471355	0.000000	
6.254973	0.000000	0.000000	0.000000	0.000000	0.000000	0.000000	-51.636517	800.423378	-51.959871	0.128377	0.000000	-0.084290	0.000000	0.000000	0.000000	0.000000	-20.391309	0.000000	
6.256643	0.000000	0.000000	0.000000	0.000000	0.000000	0.000000	-52.050985	799.046182	-51.689806	0.127686	0.000000	-0.084198	0.000000	0.000000	0.000000	0.000000	-20.311686	0.000000	
6.258312	0.000000	0.000000	0.000000	0.000000	0.000000	0.000000	-52.478879	797.588857	-51.404260	0.126993	0.000000	-0.084101	0.000000	0.000000	0.000000	0.000000	-20.232659	0.000000	
6.259979	0.000000	0.000000	0.000000	0.000000	0.000000	0.000000	-52.920819	796.049511	-51.103085	0.126299	0.000000	-0.084001	0.000000	0.000000	0.000000	0.000000	-20.154388	0.000000	
6.261643	-1.091364	3.594716	-1.188791	0.000000	0.000000	0.000000	-53.377361	794.426135	-50.786126	0.125603	0.000000	-0.083897	0.000000	-0.424674	0.000000	0.000000	-20.077023	0.000000	
6.263307	-1.704082	7.064599	-2.001702	0.000000	0.000000	0.000000	-53.848986	792.716599	-50.453223	0.124906	0.000000	-0.083789	0.000000	-0.722413	0.000000	0.000000	-20.000698	0.000000	
6.264973	-2.387359	11.276038	-2.942000	0.000000	0.000000	0.000000	-54.336096	790.918653	-50.104214	0.124207	0.000000	-0.083677	0.000000	-1.068357	0.000000	0.000000	-19.925534	0.000000	
6.266637	-3.117321	16.189626	-3.987319	0.000000	0.000000	0.000000	-54.839010	789.029925	-49.738933	0.123506	0.000000	-0.083561	0.000000	-1.454782	0.000000	0.000000	-19.851636	0.000000	
6.268311	-3.864854	21.733846	-5.108025	0.000000	0.000000	0.000000	-55.357957	787.047926	-49.357214	0.122804	0.000000	-0.083442	0.000000	-1.871311	0.000000	0.000000	-19.779094	0.000000	
6.269973	-4.597457	27.810530	-6.269167	0.306053	0.000000	0.087186	-55.893074	784.970046	-48.958888	0.122100	0.000000	-0.083318	0.000000	-3.823464	0.000000	0.000000	-19.707980	0.000000	
6.271638	-5.281537	34.303190	-7.433056	0.312053	0.000000	0.088059	-56.444399	782.793563	-48.543790	0.121395	0.000000	-0.083190	0.000000	-4.598697	0.000000	0.000000	-19.638348	0.000000	
6.273310	-5.884859	41.087095	-8.562133	0.317394	0.000000	0.088852	-57.011869	780.515642	-48.111756	0.120689	0.000000	-0.083058	0.000000	-5.368640	0.000000	0.000000	-19.570234	0.000000	
6.274971	-6.378816	48.039678	-9.621741	0.322187	0.000000	0.089576	-57.595316	778.133343	-47.662627	0.119982	0.000000	-0.082923	0.000000	-6.110845	0.000000	0.000000	-19.503655	0.000000	
6.276643	-6.740234	55.049855	-10.582441	0.326520	0.000000	0.090243	-58.194462	775.643626	-47.196249	0.119275	0.000000	-0.082783	0.000000	-6.805710	0.000000	0.000000	-19.438610	0.000000	
6.278310	-6.952540	62.025294	-11.421635	0.330465	0.000000	0.090860	-58.808918	773.043356	-46.712478	0.118567	0.000000	-0.082639	0.000000	-7.437626	0.000000	0.000000	-19.375076	0.000000	
6.279974	-7.006241	68.897098	-12.124411	0.334077	0.000000	0.091433	-59.438181	770.329312	-46.211179	0.117860	0.000000	-0.082492	0.000000	-7.995648	0.000000	0.000000	-19.313011	0.000000	
6.281640	-6.898760	75.621831	-12.683635	0.337405	0.000000	0.091970	-60.081631	767.498197	-45.692230	0.117153	0.000000	-0.082340	0.000000	-8.473678	0.000000	0.000000	-19.252353	0.000000	
6.283310	-6.633733	82.181114	-13.099389	0.340487	0.000000	0.092473	-60.738530	764.546646	-45.155525	0.116447	0.000000	-0.082185	0.000000	-8.870226	0.000000	0.000000	-19.193018	0.000000	
6.284972	-6.219922	88.579226	-13.377919	0.343354	0.000000	0.092947	-61.408024	761.471235	-44.600974	0.115743	0.000000	-0.082025	0.000000	-9.187831	0.000000	0.000000	-19.134904	0.000000	
6.286644	-5.669895	94.839255	-13.530249	0.346033	0.000000	0.093394	-62.089136	758.268493	-44.028506	0.115040	0.000000	-0.081862	0.000000	-9.432242	0.000000	0.000000	-19.077886	0.000000	
6.288308	-4.998625	100.998368	-13.570660	0.348547	0.000000	0.093818	-62.780771	754.934914	-43.438075	0.114341	0.000000	-0.081694	0.000000	-9.611491	0.000000	0.000000	-19.021820	0.000000	
6.289972	-4.222132	107.102753	-13.515149	0.350914	0.000000	0.094220	-63.481716	751.466972	-42.829659	0.113645	0.000000	-0.081523	0.000000	-9.734924	0.000000	0.000000	-18.966541	0.000000	
6.291646	-3.356279	113.202689	-13.380029	0.353150	0.000000	0.094603	-64.190640	747.861129	-42.203261	0.112952	0.000000	-0.081347	0.000000	-9.812304	0.000000	0.000000	-18.911867	0.000000	
6.293308	-2.415786	119.348127	-13.180734	0.355268	0.000000	0.094969	-64.906095	744.113855	-41.558919	0.112264	0.000000	-0.081167	0.000000	-9.853025	0.000000	0.000000	-18.857593	0.000000	
6.294972	-1.413503	125.585036	-12.930907	0.357280	0.000000	0.095318	-65.626521	740.221637	-40.896701	0.111581	0.000000	-0.080984	0.000000	-9.865498	0.000000	0.000000	-18.803498	0.000000	
6.296643	-0.359954	131.952663	-12.641772	0.359196	0.000000	0.095652	-66.350247	736.181001	-40.216709	0.110903	0.000000	-0.080796	0.000000	-9.856710	0.000000	0.000000	-18.749344	0.000000	
6.298313	0.736862	138.481753	-12.321804	0.361024	0.000000	0.095973	-67.075493	731.988525	-39.519086	0.110232	0.000000	-0.080605	0.000000	-9.831976	0.000000	0.000000	-18.694875	0.000000	
6.299971	1.871441	145.193696	-11.976666	0.362770	0.000000	0.096281	-67.800377	727.640857	-38.804013	0.109568	0.000000	-0.080409	0.000000	-9.794855	0.000000	0.000000	-18.639818	0.000000	
6.301642	3.040566	152.100492	-11.609361	0.364440	0.000000	0.096577	-68.522921	723.134734	-38.071715	0.108911	0.000000	-0.080209	0.000000	-9.747218	0.000000	0.000000	-18.583888	0.000000	
6.303310	4.242958	159.205394	-11.220559	0.366040	0.000000	0.096861	-69.241049	718.467002	-37.322458	0.108262	0.000000	-0.080005	0.000000	-9.689427	0.000000	0.000000	-18.526783	0.000000	
6.304972	5.478844	166.504046	-10.809040	0.367574	0.000000	0.097135	-69.952601	713.634633	-36.556557	0.107622	0.000000	-0.079797	0.000000	-9.620601	0.000000	0.000000	-18.468192	0.000000	
6.306642	6.749497	173.985953	-10.372189	0.369044	0.000000	0.097400	-70.655335	708.634748	-35.774373	0.106992	0.000000	-0.079586	0.000000	-9.538918	0.000000	0.000000	-18.407789	0.000000	
6.308304	8.056767	181.636097	-9.906515	0.370454	0.000000	0.097655	-71.346934	703.464636	-34.976317	0.106370	0.000000	-0.079370	0.000000	-9.441943	0.000000	0.000000	-18.345242	0.000000	
6.309973	9.402666	189.436565	-9.408133	0.371806	0.000000	0.097901	-72.025013	698.121775	-34.162848	0.105760	0.000000	-0.079150	0.000000	-9.326936	0.000000	0.000000	-18.280208	0.000000	
6.311639	10.789002	197.368063	-8.873191	0.373101	0.000000	0.098139	-72.687129	692.603856	-33.334478	0.105159	0.000000	-0.078926	0.000000	-9.191136	0.000000	0.000000	-18.212339	0.000000	
6.313309	12.217102	205.411223	-8.298220	0.374341	0.000000	0.098370	-73.330785	686.908796	-32.491770	0.104570	0.000000	-0.078698	0.000000	-9.031984	0.000000	0.000000	-18.141280	0.000000	
6.314977	13.687611	213.547655	-7.680388	0.375528	0.000000	0.098592	-73.953443	681.034765	-31.635336	0.103993	0.000000	-0.078466	0.000000	-8.847306	0.000000	0.000000	-18.066675	0.000000	
6.316644	15.200375	221.760714	-7.017673	0.376660	0.000000	0.098808	-74.552528	674.980198	-30.765844	0.103427	0.000000	-0.078230	0.000000	-8.635431	0.000000	0.000000	-17.988163	0.000000	
6.318310	16.754404	230.035976	-6.308940	0.377740	0.000000	0.099017	-75.125442	668.743817	-29.884011	0.102874	0.000000	-0.077991	0.000000	-8.395250	0.000000	0.000000	-17.905385	0.000000	
6.319974	18.347893	238.361461	-5.553951	0.378768	0.000000	0.099219	-75.669567	662.324639	-28.990607	0.102332	0.000000	-0.077747	0.000000	-8.126235	0.000000	0.000000	-17.817982	0.000000	
6.321646	19.978298	246.727623	-4.753309	0.379742	0.000000	0.099415	-76.182283	655.721995	-28.086454	0.101804	0.000000	-0.077500	0.000000	-7.828408	0.000000	0.000000	-17.725601	0.000000	
6.323310	21.642444	255.127165	-3.908354	0.380663	0.000000	0.099605	-76.660972	648.935536	-27.172425	0.101287	0.000000	-0.077249	0.000000	-7.502286	0.000000	0.000000	-17.627892	0.000000	
6.324979	23.336655	263.554727	-3.021044	0.381531	0.000000	0.099789	-77.103029	641.965242	-26.249443	0.100784	0.000000	-0.076994	0.000000	-7.148801	0.000000	0.000000	-17.524515	0.000000	
6.326643	25.056894	272.006495	-2.093802	0.382345	0.000000	0.099968	-77.505878	634.811428	-25.318482	0.100293	0.000000	-0.076735	0.000000	-6.769212	0.000000	0.000000	-17.415136	0.000000	
6.328304	26.798896	280.479778	-1.129381	0.383104	0.000000	0.100141	-77.866976	627.474749	-24.380563	0.099815	0.000000	-0.076472	0.000000	-6.365014	0.000000	0.000000	-17.299437	0.000000	
6.329975	28.558287	288.972598	-0.130723	0.383809	0.000000	0.100309	-78.183830	619.956200	-23.436759	0.099349	0.000000	-0.076206	0.000000	-5.937850	0.000000	0.000000	-17.177110	0.000000	
6.331639	30.330691	297.483317	0.899151	0.384457	0.000000	0.100473	-78.454008	612.257120	-22.488187	0.098896	0.000000	-0.075937	0.000000	-5.489438	0.000000	0.000000	-17.047866	0.000000	
6.333311	32.111815	306.010320	1.957239	0.385049	0.000000	0.100631	-78.675150	604.379193	-21.536007	0.098454	0.000000	-0.075663	0.000000	-5.021506	0.000000	0.000000	-16.911432	0.000000	
6.334972	33.897500	314.551777	3.040627	0.385583	0.000000	0.100785	-78.844979	596.324455	-20.581426	0.098024	0.000000	-0.075387	0.000000	-4.535745	0.000000	0.000000	-16.767558	0.000000	
6.336641	35.683768	323.105484	4.146534	0.386060	0.000000	0.100934	-78.961318	588.095296	-19.625688	0.097605	0.000000	-0.075107	0.000000	-4.033780	0.000000	0.000000	-16.616014	0.000000	
6.338310	37.466833	331.668770	5.272337	0.386477	0.000000	0.101079	-79.022098	579.694468	-18.670073	0.097197	0.000000	-0.074823	0.000000	-3.517152	0.000000	0.000000	-16.456596	0.000000	
6.339978	39.243110	340.238477	6.415577	0.386835	0.000000	0.101220	-79.025372	571.125102	-17.715895	0.096799	0.000000	-0.074537	0.000000	-2.987310	0.000000	0.000000	-16.289127	0.000000	
6.341646	41.009200	348.810997	7.573948	0.387132	0.000000	0.101357	-78.969328	562.390720	-16.764491	0.096410	0.000000	-0.074247	0.000000	-2.445623	0.000000	0.000000	-16.113456	0.000000	
6.343304	42.761875	357.382348	8.745275	0.387369	0.000000	0.101490	-78.852294	553.495258	-15.817223	0.096030	0.000000	-0.073954	0.000000	-1.893384	0.000000	0.000000	-15.929462	0.000000	
6.344975	44.498053	365.948278	9.927493	0.387543	0.000000	0.101619	-78.672755	544.443087	-14.875464	0.095658	0.000000	-0.073658	0.000000	-1.331831	0.000000	0.000000	-15.737055	0.000000	
6.346639	46.214779	374.504381	11.118613	0.387656	0.000000	0.101744	-78.429358	535.239040	-13.940593	0.095293	0.000000	-0.073360	0.000000	-0.762164	0.000000	0.000000	-15.536175	0.000000	
6.348307	47.909198	383.046224	12.316701	0.387706	0.000000	0.101866	-78.120918	525.888443	-13.013990	0.094935	0.000000	-0.073058	0.000000	-0.185561	0.000000	0.000000	-15.326794	0.000000	
6.349971	49.578544	391.569452	13.519849	0.387694	0.000000	0.101984	-77.746427	516.397131	-12.097022	0.094581	0.000000	-0.072754	0.000000	0.396805	0.000000	0.000000	-15.108916	0.000000	
6.351639	51.220120	400.069894	14.726158	0.387618	0.000000	0.102099	-77.305056	506.771475	-11.191038	0.094231	0.000000	-0.072447	0.000000	0.983759	0.000000	0.000000	-14.882573	0.000000	
6.353312	52.831298	408.543632	15.933728	0.387479	0.000000	0.102210	-76.796157	497.018392	-10.297362	0.093884	0.000000	-0.072138	0.000000	1.574114	0.000000	0.000000	-14.647831	0.000000	
6.354977	54.409511	416.987063	17.140653	0.387277	0.000000	0.102318	-76.219266	487.145339	-9.417284	0.093539	0.000000	-0.071826	0.000000	2.166666	0.000000	0.000000	-14.404783	0.000000	
